<mxfile host="Electron" modified="2024-09-05T06:09:50.544Z" agent="Mozilla/5.0 (Windows NT 10.0; Win64; x64) AppleWebKit/537.36 (KHTML, like Gecko) draw.io/23.1.5 Chrome/120.0.6099.109 Electron/28.1.0 Safari/537.36" etag="JqadT70M3xouuPoUxs55" version="23.1.5" type="device">
  <diagram name="Page-1" id="2YBvvXClWsGukQMizWep">
    <mxGraphModel dx="1594" dy="962" grid="1" gridSize="10" guides="1" tooltips="1" connect="1" arrows="1" fold="1" page="1" pageScale="1" pageWidth="1100" pageHeight="850" math="0" shadow="0">
      <root>
        <mxCell id="0" />
        <mxCell id="1" parent="0" />
        <mxCell id="JfvJ5AOV0zbwnn7TF4ZV-16" value="&lt;p style=&quot;font-size: 9px;&quot; data-pm-slice=&quot;1 1 [&amp;quot;ordered_list&amp;quot;,{&amp;quot;order&amp;quot;:1,&amp;quot;fontColor&amp;quot;:null,&amp;quot;backgroundColor&amp;quot;:null},&amp;quot;list_item&amp;quot;,{&amp;quot;fontColor&amp;quot;:null,&amp;quot;backgroundColor&amp;quot;:null}]&quot; class=&quot;&quot;&gt;подъезжает &lt;br&gt;к парковке&lt;/p&gt;" style="html=1;verticalAlign=bottom;startArrow=oval;startFill=1;endArrow=block;startSize=8;curved=0;rounded=0;" parent="1" target="aM9ryv3xv72pqoxQDRHE-2" edge="1">
          <mxGeometry x="-0.2" y="-50" width="60" relative="1" as="geometry">
            <mxPoint x="50" y="160" as="sourcePoint" />
            <mxPoint x="120" y="160" as="targetPoint" />
            <mxPoint as="offset" />
          </mxGeometry>
        </mxCell>
        <mxCell id="aM9ryv3xv72pqoxQDRHE-1" value=":Камера" style="shape=umlLifeline;perimeter=lifelinePerimeter;whiteSpace=wrap;html=1;container=0;dropTarget=0;collapsible=0;recursiveResize=0;outlineConnect=0;portConstraint=eastwest;newEdgeStyle={&quot;edgeStyle&quot;:&quot;elbowEdgeStyle&quot;,&quot;elbow&quot;:&quot;vertical&quot;,&quot;curved&quot;:0,&quot;rounded&quot;:0};size=50;" parent="1" vertex="1">
          <mxGeometry x="80" y="40" width="100" height="800" as="geometry" />
        </mxCell>
        <mxCell id="aM9ryv3xv72pqoxQDRHE-2" value="" style="html=1;points=[];perimeter=orthogonalPerimeter;outlineConnect=0;targetShapes=umlLifeline;portConstraint=eastwest;newEdgeStyle={&quot;edgeStyle&quot;:&quot;elbowEdgeStyle&quot;,&quot;elbow&quot;:&quot;vertical&quot;,&quot;curved&quot;:0,&quot;rounded&quot;:0};" parent="aM9ryv3xv72pqoxQDRHE-1" vertex="1">
          <mxGeometry x="45" y="100" width="10" height="130" as="geometry" />
        </mxCell>
        <mxCell id="aM9ryv3xv72pqoxQDRHE-5" value="&lt;p data-pm-slice=&quot;1 1 [&amp;quot;ordered_list&amp;quot;,{&amp;quot;order&amp;quot;:1,&amp;quot;fontColor&amp;quot;:null,&amp;quot;backgroundColor&amp;quot;:null},&amp;quot;list_item&amp;quot;,null]&quot; class=&quot;&quot;&gt;:Система распознавания&amp;nbsp;&lt;br&gt;(&lt;code spellcheck=&quot;false&quot; class=&quot;inline&quot;&gt;plate_recognition.py&lt;/code&gt;)&lt;/p&gt;" style="shape=umlLifeline;perimeter=lifelinePerimeter;whiteSpace=wrap;html=1;container=0;dropTarget=0;collapsible=0;recursiveResize=0;outlineConnect=0;portConstraint=eastwest;newEdgeStyle={&quot;edgeStyle&quot;:&quot;elbowEdgeStyle&quot;,&quot;elbow&quot;:&quot;vertical&quot;,&quot;curved&quot;:0,&quot;rounded&quot;:0};size=50;" parent="1" vertex="1">
          <mxGeometry x="200" y="40" width="160" height="800" as="geometry" />
        </mxCell>
        <mxCell id="aM9ryv3xv72pqoxQDRHE-6" value="" style="html=1;points=[];perimeter=orthogonalPerimeter;outlineConnect=0;targetShapes=umlLifeline;portConstraint=eastwest;newEdgeStyle={&quot;edgeStyle&quot;:&quot;elbowEdgeStyle&quot;,&quot;elbow&quot;:&quot;vertical&quot;,&quot;curved&quot;:0,&quot;rounded&quot;:0};" parent="aM9ryv3xv72pqoxQDRHE-5" vertex="1">
          <mxGeometry x="75" y="185" width="10" height="245" as="geometry" />
        </mxCell>
        <mxCell id="e4ZrpiQ9aY_Jl2AQ1F8j-9" value="" style="html=1;points=[];perimeter=orthogonalPerimeter;outlineConnect=0;targetShapes=umlLifeline;portConstraint=eastwest;newEdgeStyle={&quot;edgeStyle&quot;:&quot;elbowEdgeStyle&quot;,&quot;elbow&quot;:&quot;vertical&quot;,&quot;curved&quot;:0,&quot;rounded&quot;:0};" vertex="1" parent="aM9ryv3xv72pqoxQDRHE-5">
          <mxGeometry x="80" y="230" width="10" height="40" as="geometry" />
        </mxCell>
        <mxCell id="e4ZrpiQ9aY_Jl2AQ1F8j-22" value="" style="html=1;points=[];perimeter=orthogonalPerimeter;outlineConnect=0;targetShapes=umlLifeline;portConstraint=eastwest;newEdgeStyle={&quot;edgeStyle&quot;:&quot;elbowEdgeStyle&quot;,&quot;elbow&quot;:&quot;vertical&quot;,&quot;curved&quot;:0,&quot;rounded&quot;:0};" vertex="1" parent="aM9ryv3xv72pqoxQDRHE-5">
          <mxGeometry x="80" y="345" width="10" height="65" as="geometry" />
        </mxCell>
        <mxCell id="JfvJ5AOV0zbwnn7TF4ZV-2" value="&lt;p data-pm-slice=&quot;1 1 [&amp;quot;ordered_list&amp;quot;,{&amp;quot;order&amp;quot;:1,&amp;quot;fontColor&amp;quot;:null,&amp;quot;backgroundColor&amp;quot;:null},&amp;quot;list_item&amp;quot;,null]&quot; class=&quot;&quot;&gt;:Менеджер доступа&amp;nbsp;&lt;br&gt;(&lt;code spellcheck=&quot;false&quot; class=&quot;inline&quot;&gt;access_manager.py&lt;/code&gt;)&lt;/p&gt;" style="shape=umlLifeline;perimeter=lifelinePerimeter;whiteSpace=wrap;html=1;container=0;dropTarget=0;collapsible=0;recursiveResize=0;outlineConnect=0;portConstraint=eastwest;newEdgeStyle={&quot;edgeStyle&quot;:&quot;elbowEdgeStyle&quot;,&quot;elbow&quot;:&quot;vertical&quot;,&quot;curved&quot;:0,&quot;rounded&quot;:0};size=50;" parent="1" vertex="1">
          <mxGeometry x="560" y="40" width="160" height="800" as="geometry" />
        </mxCell>
        <mxCell id="JfvJ5AOV0zbwnn7TF4ZV-3" value="" style="html=1;points=[];perimeter=orthogonalPerimeter;outlineConnect=0;targetShapes=umlLifeline;portConstraint=eastwest;newEdgeStyle={&quot;edgeStyle&quot;:&quot;elbowEdgeStyle&quot;,&quot;elbow&quot;:&quot;vertical&quot;,&quot;curved&quot;:0,&quot;rounded&quot;:0};" parent="JfvJ5AOV0zbwnn7TF4ZV-2" vertex="1">
          <mxGeometry x="75" y="385" width="10" height="215" as="geometry" />
        </mxCell>
        <mxCell id="JfvJ5AOV0zbwnn7TF4ZV-4" value="&lt;p data-pm-slice=&quot;1 1 [&amp;quot;ordered_list&amp;quot;,{&amp;quot;order&amp;quot;:1,&amp;quot;fontColor&amp;quot;:null,&amp;quot;backgroundColor&amp;quot;:null},&amp;quot;list_item&amp;quot;,null]&quot; class=&quot;&quot;&gt;Контроллер шлагбаума&amp;nbsp;&lt;br&gt;(&lt;code spellcheck=&quot;false&quot; class=&quot;inline&quot;&gt;barrier_control.py&lt;/code&gt;)&lt;/p&gt;" style="shape=umlLifeline;perimeter=lifelinePerimeter;whiteSpace=wrap;html=1;container=0;dropTarget=0;collapsible=0;recursiveResize=0;outlineConnect=0;portConstraint=eastwest;newEdgeStyle={&quot;edgeStyle&quot;:&quot;elbowEdgeStyle&quot;,&quot;elbow&quot;:&quot;vertical&quot;,&quot;curved&quot;:0,&quot;rounded&quot;:0};size=50;" parent="1" vertex="1">
          <mxGeometry x="740" y="40" width="160" height="800" as="geometry" />
        </mxCell>
        <mxCell id="JfvJ5AOV0zbwnn7TF4ZV-5" value="" style="html=1;points=[];perimeter=orthogonalPerimeter;outlineConnect=0;targetShapes=umlLifeline;portConstraint=eastwest;newEdgeStyle={&quot;edgeStyle&quot;:&quot;elbowEdgeStyle&quot;,&quot;elbow&quot;:&quot;vertical&quot;,&quot;curved&quot;:0,&quot;rounded&quot;:0};" parent="JfvJ5AOV0zbwnn7TF4ZV-4" vertex="1">
          <mxGeometry x="75" y="560" width="10" height="190" as="geometry" />
        </mxCell>
        <mxCell id="e4ZrpiQ9aY_Jl2AQ1F8j-53" value="" style="html=1;points=[];perimeter=orthogonalPerimeter;outlineConnect=0;targetShapes=umlLifeline;portConstraint=eastwest;newEdgeStyle={&quot;edgeStyle&quot;:&quot;elbowEdgeStyle&quot;,&quot;elbow&quot;:&quot;vertical&quot;,&quot;curved&quot;:0,&quot;rounded&quot;:0};" vertex="1" parent="JfvJ5AOV0zbwnn7TF4ZV-4">
          <mxGeometry x="80" y="610" width="10" height="30" as="geometry" />
        </mxCell>
        <mxCell id="JfvJ5AOV0zbwnn7TF4ZV-6" value="&lt;p data-pm-slice=&quot;1 1 [&amp;quot;ordered_list&amp;quot;,{&amp;quot;order&amp;quot;:1,&amp;quot;fontColor&amp;quot;:null,&amp;quot;backgroundColor&amp;quot;:null},&amp;quot;list_item&amp;quot;,null]&quot; class=&quot;&quot;&gt;:База данных&amp;nbsp;&lt;br&gt;(&lt;code spellcheck=&quot;false&quot; class=&quot;inline&quot;&gt;database.py&lt;/code&gt;)&lt;/p&gt;" style="shape=umlLifeline;perimeter=lifelinePerimeter;whiteSpace=wrap;html=1;container=0;dropTarget=0;collapsible=0;recursiveResize=0;outlineConnect=0;portConstraint=eastwest;newEdgeStyle={&quot;edgeStyle&quot;:&quot;elbowEdgeStyle&quot;,&quot;elbow&quot;:&quot;vertical&quot;,&quot;curved&quot;:0,&quot;rounded&quot;:0};size=50;" parent="1" vertex="1">
          <mxGeometry x="380" y="40" width="160" height="800" as="geometry" />
        </mxCell>
        <mxCell id="JfvJ5AOV0zbwnn7TF4ZV-7" value="" style="html=1;points=[];perimeter=orthogonalPerimeter;outlineConnect=0;targetShapes=umlLifeline;portConstraint=eastwest;newEdgeStyle={&quot;edgeStyle&quot;:&quot;elbowEdgeStyle&quot;,&quot;elbow&quot;:&quot;vertical&quot;,&quot;curved&quot;:0,&quot;rounded&quot;:0};" parent="JfvJ5AOV0zbwnn7TF4ZV-6" vertex="1">
          <mxGeometry x="75" y="420" width="10" height="150" as="geometry" />
        </mxCell>
        <mxCell id="e4ZrpiQ9aY_Jl2AQ1F8j-36" value="" style="html=1;points=[];perimeter=orthogonalPerimeter;outlineConnect=0;targetShapes=umlLifeline;portConstraint=eastwest;newEdgeStyle={&quot;edgeStyle&quot;:&quot;elbowEdgeStyle&quot;,&quot;elbow&quot;:&quot;vertical&quot;,&quot;curved&quot;:0,&quot;rounded&quot;:0};" vertex="1" parent="JfvJ5AOV0zbwnn7TF4ZV-6">
          <mxGeometry x="80" y="450" width="10" height="40" as="geometry" />
        </mxCell>
        <mxCell id="JfvJ5AOV0zbwnn7TF4ZV-10" value="" style="shape=umlLifeline;perimeter=lifelinePerimeter;whiteSpace=wrap;html=1;container=1;dropTarget=0;collapsible=0;recursiveResize=0;outlineConnect=0;portConstraint=eastwest;newEdgeStyle={&quot;curved&quot;:0,&quot;rounded&quot;:0};participant=umlActor;size=45;" parent="1" vertex="1">
          <mxGeometry x="30" y="40" width="20" height="800" as="geometry" />
        </mxCell>
        <mxCell id="JfvJ5AOV0zbwnn7TF4ZV-11" value="" style="html=1;points=[[0,0,0,0,5],[0,1,0,0,-5],[1,0,0,0,5],[1,1,0,0,-5]];perimeter=orthogonalPerimeter;outlineConnect=0;targetShapes=umlLifeline;portConstraint=eastwest;newEdgeStyle={&quot;curved&quot;:0,&quot;rounded&quot;:0};" parent="JfvJ5AOV0zbwnn7TF4ZV-10" vertex="1">
          <mxGeometry x="5" y="100" width="10" height="680" as="geometry" />
        </mxCell>
        <mxCell id="JfvJ5AOV0zbwnn7TF4ZV-12" value="&lt;p data-pm-slice=&quot;1 1 [&amp;quot;ordered_list&amp;quot;,{&amp;quot;order&amp;quot;:1,&amp;quot;fontColor&amp;quot;:null,&amp;quot;backgroundColor&amp;quot;:null},&amp;quot;list_item&amp;quot;,null]&quot; class=&quot;&quot;&gt;Логгер&amp;nbsp;&lt;br&gt;(&lt;code spellcheck=&quot;false&quot; class=&quot;inline&quot;&gt;logger.py&lt;/code&gt;)&lt;/p&gt;" style="shape=umlLifeline;perimeter=lifelinePerimeter;whiteSpace=wrap;html=1;container=0;dropTarget=0;collapsible=0;recursiveResize=0;outlineConnect=0;portConstraint=eastwest;newEdgeStyle={&quot;edgeStyle&quot;:&quot;elbowEdgeStyle&quot;,&quot;elbow&quot;:&quot;vertical&quot;,&quot;curved&quot;:0,&quot;rounded&quot;:0};size=50;" parent="1" vertex="1">
          <mxGeometry x="920" y="40" width="160" height="800" as="geometry" />
        </mxCell>
        <mxCell id="JfvJ5AOV0zbwnn7TF4ZV-13" value="" style="html=1;points=[];perimeter=orthogonalPerimeter;outlineConnect=0;targetShapes=umlLifeline;portConstraint=eastwest;newEdgeStyle={&quot;edgeStyle&quot;:&quot;elbowEdgeStyle&quot;,&quot;elbow&quot;:&quot;vertical&quot;,&quot;curved&quot;:0,&quot;rounded&quot;:0};" parent="JfvJ5AOV0zbwnn7TF4ZV-12" vertex="1">
          <mxGeometry x="75" y="120" width="10" height="630" as="geometry" />
        </mxCell>
        <mxCell id="JfvJ5AOV0zbwnn7TF4ZV-14" value="&lt;span style=&quot;font-weight: normal;&quot;&gt;Пользователь&lt;br&gt;(автомобиль)&lt;/span&gt;" style="text;align=center;fontStyle=1;verticalAlign=middle;spacingLeft=3;spacingRight=3;strokeColor=none;rotatable=0;points=[[0,0.5],[1,0.5]];portConstraint=eastwest;html=1;" parent="1" vertex="1">
          <mxGeometry y="100" width="80" height="26" as="geometry" />
        </mxCell>
        <mxCell id="e4ZrpiQ9aY_Jl2AQ1F8j-1" value="" style="endArrow=classic;html=1;rounded=0;" edge="1" parent="1">
          <mxGeometry width="50" height="50" relative="1" as="geometry">
            <mxPoint x="129.5" y="160" as="sourcePoint" />
            <mxPoint x="999.5" y="160" as="targetPoint" />
          </mxGeometry>
        </mxCell>
        <mxCell id="e4ZrpiQ9aY_Jl2AQ1F8j-2" value="&lt;p data-pm-slice=&quot;1 1 [&amp;quot;ordered_list&amp;quot;,{&amp;quot;order&amp;quot;:1,&amp;quot;fontColor&amp;quot;:null,&amp;quot;backgroundColor&amp;quot;:null},&amp;quot;list_item&amp;quot;,{&amp;quot;fontColor&amp;quot;:null,&amp;quot;backgroundColor&amp;quot;:null}]&quot; class=&quot;&quot;&gt;Запись события &quot;Изображение захвачено&quot;&lt;/p&gt;" style="text;html=1;align=center;verticalAlign=middle;resizable=0;points=[];autosize=1;strokeColor=none;fillColor=none;" vertex="1" parent="1">
          <mxGeometry x="470" y="126" width="260" height="50" as="geometry" />
        </mxCell>
        <mxCell id="e4ZrpiQ9aY_Jl2AQ1F8j-3" value="&lt;p data-pm-slice=&quot;1 1 [&amp;quot;ordered_list&amp;quot;,{&amp;quot;order&amp;quot;:1,&amp;quot;fontColor&amp;quot;:null,&amp;quot;backgroundColor&amp;quot;:null},&amp;quot;list_item&amp;quot;,{&amp;quot;fontColor&amp;quot;:null,&amp;quot;backgroundColor&amp;quot;:null}]&quot; class=&quot;&quot;&gt;захватывает &lt;br&gt;изображение &lt;br&gt;номерного знака.&lt;/p&gt;" style="text;html=1;align=center;verticalAlign=middle;resizable=0;points=[];autosize=1;strokeColor=none;fillColor=none;" vertex="1" parent="1">
          <mxGeometry x="70" y="73" width="120" height="80" as="geometry" />
        </mxCell>
        <mxCell id="e4ZrpiQ9aY_Jl2AQ1F8j-4" value="" style="endArrow=classic;html=1;rounded=0;" edge="1" parent="1" target="JfvJ5AOV0zbwnn7TF4ZV-12">
          <mxGeometry width="50" height="50" relative="1" as="geometry">
            <mxPoint x="280" y="248" as="sourcePoint" />
            <mxPoint x="330" y="198" as="targetPoint" />
          </mxGeometry>
        </mxCell>
        <mxCell id="e4ZrpiQ9aY_Jl2AQ1F8j-5" value="" style="endArrow=classic;html=1;rounded=0;" edge="1" parent="1" source="aM9ryv3xv72pqoxQDRHE-6">
          <mxGeometry width="50" height="50" relative="1" as="geometry">
            <mxPoint x="130" y="250" as="sourcePoint" />
            <mxPoint x="280" y="250" as="targetPoint" />
          </mxGeometry>
        </mxCell>
        <mxCell id="e4ZrpiQ9aY_Jl2AQ1F8j-6" value="&lt;p data-pm-slice=&quot;1 1 [&amp;quot;ordered_list&amp;quot;,{&amp;quot;order&amp;quot;:1,&amp;quot;fontColor&amp;quot;:null,&amp;quot;backgroundColor&amp;quot;:null},&amp;quot;list_item&amp;quot;,{&amp;quot;fontColor&amp;quot;:null,&amp;quot;backgroundColor&amp;quot;:null}]&quot; class=&quot;&quot;&gt;получает изображение и обрабатывает его с использованием &lt;code spellcheck=&quot;false&quot; class=&quot;inline&quot;&gt;image_processing.py&lt;/code&gt;&lt;/p&gt;" style="text;html=1;align=center;verticalAlign=middle;whiteSpace=wrap;rounded=0;" vertex="1" parent="1">
          <mxGeometry x="150" y="198" width="110" height="30" as="geometry" />
        </mxCell>
        <mxCell id="e4ZrpiQ9aY_Jl2AQ1F8j-7" value="&lt;p data-pm-slice=&quot;1 1 [&amp;quot;ordered_list&amp;quot;,{&amp;quot;order&amp;quot;:1,&amp;quot;fontColor&amp;quot;:null,&amp;quot;backgroundColor&amp;quot;:null},&amp;quot;list_item&amp;quot;,{&amp;quot;fontColor&amp;quot;:null,&amp;quot;backgroundColor&amp;quot;:null}]&quot; class=&quot;&quot;&gt;Запись события &quot;Обработка изображения начата&quot;&lt;/p&gt;" style="text;html=1;align=center;verticalAlign=middle;resizable=0;points=[];autosize=1;strokeColor=none;fillColor=none;" vertex="1" parent="1">
          <mxGeometry x="470" y="210" width="300" height="50" as="geometry" />
        </mxCell>
        <mxCell id="e4ZrpiQ9aY_Jl2AQ1F8j-8" value="" style="endArrow=classic;html=1;rounded=0;" edge="1" parent="1" target="aM9ryv3xv72pqoxQDRHE-6">
          <mxGeometry width="50" height="50" relative="1" as="geometry">
            <mxPoint x="130" y="250" as="sourcePoint" />
            <mxPoint x="280" y="250" as="targetPoint" />
          </mxGeometry>
        </mxCell>
        <mxCell id="e4ZrpiQ9aY_Jl2AQ1F8j-10" value="" style="endArrow=classic;html=1;rounded=0;" edge="1" parent="1">
          <mxGeometry width="50" height="50" relative="1" as="geometry">
            <mxPoint x="285.2499999999998" y="280" as="sourcePoint" />
            <mxPoint x="994.75" y="280" as="targetPoint" />
          </mxGeometry>
        </mxCell>
        <mxCell id="e4ZrpiQ9aY_Jl2AQ1F8j-11" value="&lt;span style=&quot;background-color: initial;&quot;&gt;&amp;nbsp;Запись ошибки &quot;Ошибка обработки изображения&quot;&lt;/span&gt;&lt;br&gt;&lt;div&gt;&lt;br/&gt;&lt;/div&gt;" style="text;html=1;align=center;verticalAlign=middle;whiteSpace=wrap;rounded=0;" vertex="1" parent="1">
          <mxGeometry x="320" y="260" width="360" height="30" as="geometry" />
        </mxCell>
        <mxCell id="e4ZrpiQ9aY_Jl2AQ1F8j-17" value="" style="endArrow=classic;html=1;rounded=0;entryX=0;entryY=0.5;entryDx=0;entryDy=0;dashed=1;" edge="1" parent="1" target="e4ZrpiQ9aY_Jl2AQ1F8j-12">
          <mxGeometry relative="1" as="geometry">
            <mxPoint x="290" y="304.5" as="sourcePoint" />
            <mxPoint x="390" y="304.5" as="targetPoint" />
          </mxGeometry>
        </mxCell>
        <mxCell id="e4ZrpiQ9aY_Jl2AQ1F8j-23" value="" style="endArrow=classic;html=1;rounded=0;" edge="1" parent="1">
          <mxGeometry width="50" height="50" relative="1" as="geometry">
            <mxPoint x="290" y="410.0000000000001" as="sourcePoint" />
            <mxPoint x="999.5" y="410.0000000000001" as="targetPoint" />
          </mxGeometry>
        </mxCell>
        <mxCell id="e4ZrpiQ9aY_Jl2AQ1F8j-24" value="&lt;p data-pm-slice=&quot;1 1 [&amp;quot;ordered_list&amp;quot;,{&amp;quot;order&amp;quot;:1,&amp;quot;fontColor&amp;quot;:null,&amp;quot;backgroundColor&amp;quot;:null},&amp;quot;list_item&amp;quot;,{&amp;quot;fontColor&amp;quot;:null,&amp;quot;backgroundColor&amp;quot;:null}]&quot; class=&quot;&quot;&gt;Запись события &quot;Номерной знак извлечен&quot;.&lt;/p&gt;" style="text;html=1;align=center;verticalAlign=middle;resizable=0;points=[];autosize=1;strokeColor=none;fillColor=none;" vertex="1" parent="1">
          <mxGeometry x="470" y="370" width="270" height="50" as="geometry" />
        </mxCell>
        <mxCell id="e4ZrpiQ9aY_Jl2AQ1F8j-25" value="" style="endArrow=classic;html=1;rounded=0;" edge="1" parent="1">
          <mxGeometry width="50" height="50" relative="1" as="geometry">
            <mxPoint x="290" y="439.5800000000001" as="sourcePoint" />
            <mxPoint x="639.5" y="439.5800000000001" as="targetPoint" />
          </mxGeometry>
        </mxCell>
        <mxCell id="e4ZrpiQ9aY_Jl2AQ1F8j-26" value="&lt;p data-pm-slice=&quot;1 1 [&amp;quot;ordered_list&amp;quot;,{&amp;quot;order&amp;quot;:1,&amp;quot;fontColor&amp;quot;:null,&amp;quot;backgroundColor&amp;quot;:null},&amp;quot;list_item&amp;quot;,{&amp;quot;fontColor&amp;quot;:null,&amp;quot;backgroundColor&amp;quot;:null}]&quot; class=&quot;&quot;&gt;запрос на проверку номерного знака&lt;/p&gt;" style="text;html=1;align=center;verticalAlign=middle;resizable=0;points=[];autosize=1;strokeColor=none;fillColor=none;" vertex="1" parent="1">
          <mxGeometry x="340" y="400" width="230" height="50" as="geometry" />
        </mxCell>
        <mxCell id="e4ZrpiQ9aY_Jl2AQ1F8j-27" value="" style="endArrow=classic;html=1;rounded=0;" edge="1" parent="1" source="JfvJ5AOV0zbwnn7TF4ZV-2" target="JfvJ5AOV0zbwnn7TF4ZV-12">
          <mxGeometry width="50" height="50" relative="1" as="geometry">
            <mxPoint x="350" y="290" as="sourcePoint" />
            <mxPoint x="400" y="240" as="targetPoint" />
          </mxGeometry>
        </mxCell>
        <mxCell id="e4ZrpiQ9aY_Jl2AQ1F8j-28" value="&lt;p data-pm-slice=&quot;1 1 [&amp;quot;ordered_list&amp;quot;,{&amp;quot;order&amp;quot;:1,&amp;quot;fontColor&amp;quot;:null,&amp;quot;backgroundColor&amp;quot;:null},&amp;quot;list_item&amp;quot;,{&amp;quot;fontColor&amp;quot;:null,&amp;quot;backgroundColor&amp;quot;:null}]&quot; class=&quot;&quot;&gt;Запись события &quot;Запрос на проверку отправлен&quot;&lt;/p&gt;" style="text;html=1;align=center;verticalAlign=middle;resizable=0;points=[];autosize=1;strokeColor=none;fillColor=none;" vertex="1" parent="1">
          <mxGeometry x="680" y="400" width="300" height="50" as="geometry" />
        </mxCell>
        <mxCell id="e4ZrpiQ9aY_Jl2AQ1F8j-32" value="" style="endArrow=classic;html=1;rounded=0;" edge="1" parent="1">
          <mxGeometry width="50" height="50" relative="1" as="geometry">
            <mxPoint x="640.18" y="480" as="sourcePoint" />
            <mxPoint x="460.00352941176465" y="480" as="targetPoint" />
          </mxGeometry>
        </mxCell>
        <mxCell id="e4ZrpiQ9aY_Jl2AQ1F8j-33" value="&lt;p data-pm-slice=&quot;1 1 [&amp;quot;ordered_list&amp;quot;,{&amp;quot;order&amp;quot;:1,&amp;quot;fontColor&amp;quot;:null,&amp;quot;backgroundColor&amp;quot;:null},&amp;quot;list_item&amp;quot;,{&amp;quot;fontColor&amp;quot;:null,&amp;quot;backgroundColor&amp;quot;:null}]&quot; class=&quot;&quot;&gt;проверяет наличие &lt;br&gt;номерного знака в Базе&lt;/p&gt;" style="text;html=1;align=center;verticalAlign=middle;resizable=0;points=[];autosize=1;strokeColor=none;fillColor=none;" vertex="1" parent="1">
          <mxGeometry x="470" y="430" width="160" height="70" as="geometry" />
        </mxCell>
        <mxCell id="e4ZrpiQ9aY_Jl2AQ1F8j-34" value="" style="endArrow=classic;html=1;rounded=0;" edge="1" parent="1">
          <mxGeometry width="50" height="50" relative="1" as="geometry">
            <mxPoint x="470" y="500" as="sourcePoint" />
            <mxPoint x="994.5" y="500" as="targetPoint" />
          </mxGeometry>
        </mxCell>
        <mxCell id="e4ZrpiQ9aY_Jl2AQ1F8j-35" value="&lt;p data-pm-slice=&quot;1 1 [&amp;quot;ordered_list&amp;quot;,{&amp;quot;order&amp;quot;:1,&amp;quot;fontColor&amp;quot;:null,&amp;quot;backgroundColor&amp;quot;:null},&amp;quot;list_item&amp;quot;,{&amp;quot;fontColor&amp;quot;:null,&amp;quot;backgroundColor&amp;quot;:null}]&quot; class=&quot;&quot;&gt;Запись ошибки &quot;База данных недоступна&quot;&lt;/p&gt;" style="text;html=1;align=center;verticalAlign=middle;resizable=0;points=[];autosize=1;strokeColor=none;fillColor=none;" vertex="1" parent="1">
          <mxGeometry x="680" y="460" width="260" height="50" as="geometry" />
        </mxCell>
        <mxCell id="e4ZrpiQ9aY_Jl2AQ1F8j-37" value="" style="group" vertex="1" connectable="0" parent="1">
          <mxGeometry x="320" y="290" width="105" height="120" as="geometry" />
        </mxCell>
        <mxCell id="e4ZrpiQ9aY_Jl2AQ1F8j-12" value="Сообщение" style="rounded=0;whiteSpace=wrap;html=1;" vertex="1" parent="e4ZrpiQ9aY_Jl2AQ1F8j-37">
          <mxGeometry width="105" height="30" as="geometry" />
        </mxCell>
        <mxCell id="e4ZrpiQ9aY_Jl2AQ1F8j-13" value="" style="endArrow=none;dashed=1;html=1;strokeWidth=1;rounded=0;entryX=0.5;entryY=1;entryDx=0;entryDy=0;" edge="1" parent="e4ZrpiQ9aY_Jl2AQ1F8j-37" target="e4ZrpiQ9aY_Jl2AQ1F8j-12">
          <mxGeometry width="50" height="50" relative="1" as="geometry">
            <mxPoint x="53" y="60" as="sourcePoint" />
            <mxPoint x="80" y="50" as="targetPoint" />
          </mxGeometry>
        </mxCell>
        <mxCell id="e4ZrpiQ9aY_Jl2AQ1F8j-55" value="" style="edgeStyle=orthogonalEdgeStyle;rounded=0;orthogonalLoop=1;jettySize=auto;html=1;" edge="1" parent="e4ZrpiQ9aY_Jl2AQ1F8j-37" source="e4ZrpiQ9aY_Jl2AQ1F8j-20" target="e4ZrpiQ9aY_Jl2AQ1F8j-12">
          <mxGeometry relative="1" as="geometry" />
        </mxCell>
        <mxCell id="e4ZrpiQ9aY_Jl2AQ1F8j-20" value="&lt;p data-pm-slice=&quot;1 1 [&amp;quot;ordered_list&amp;quot;,{&amp;quot;order&amp;quot;:1,&amp;quot;fontColor&amp;quot;:null,&amp;quot;backgroundColor&amp;quot;:null},&amp;quot;list_item&amp;quot;,{&amp;quot;fontColor&amp;quot;:null,&amp;quot;backgroundColor&amp;quot;:null}]&quot; class=&quot;&quot;&gt;Завершение&lt;br&gt;процесса&lt;/p&gt;" style="text;html=1;align=center;verticalAlign=middle;resizable=0;points=[];autosize=1;strokeColor=none;fillColor=none;" vertex="1" parent="e4ZrpiQ9aY_Jl2AQ1F8j-37">
          <mxGeometry x="7.5" y="50" width="90" height="70" as="geometry" />
        </mxCell>
        <mxCell id="e4ZrpiQ9aY_Jl2AQ1F8j-21" value="" style="group" vertex="1" connectable="0" parent="e4ZrpiQ9aY_Jl2AQ1F8j-37">
          <mxGeometry x="41.25" y="50" width="22.5" height="20" as="geometry" />
        </mxCell>
        <mxCell id="e4ZrpiQ9aY_Jl2AQ1F8j-14" value="" style="endArrow=none;html=1;rounded=0;" edge="1" parent="e4ZrpiQ9aY_Jl2AQ1F8j-21">
          <mxGeometry width="50" height="50" relative="1" as="geometry">
            <mxPoint y="20" as="sourcePoint" />
            <mxPoint x="22.5" as="targetPoint" />
          </mxGeometry>
        </mxCell>
        <mxCell id="e4ZrpiQ9aY_Jl2AQ1F8j-15" value="" style="endArrow=none;html=1;rounded=0;" edge="1" parent="e4ZrpiQ9aY_Jl2AQ1F8j-21">
          <mxGeometry width="50" height="50" relative="1" as="geometry">
            <mxPoint x="1.8799999999999955" as="sourcePoint" />
            <mxPoint x="20.629999999999995" y="20" as="targetPoint" />
          </mxGeometry>
        </mxCell>
        <mxCell id="e4ZrpiQ9aY_Jl2AQ1F8j-45" value="" style="endArrow=classic;html=1;rounded=0;dashed=1;" edge="1" parent="1" source="e4ZrpiQ9aY_Jl2AQ1F8j-36" target="e4ZrpiQ9aY_Jl2AQ1F8j-39">
          <mxGeometry relative="1" as="geometry">
            <mxPoint x="370" y="460" as="sourcePoint" />
            <mxPoint x="430" y="510" as="targetPoint" />
          </mxGeometry>
        </mxCell>
        <mxCell id="e4ZrpiQ9aY_Jl2AQ1F8j-39" value="Сообщение" style="rounded=0;whiteSpace=wrap;html=1;" vertex="1" parent="1">
          <mxGeometry x="320" y="515" width="105" height="30" as="geometry" />
        </mxCell>
        <mxCell id="e4ZrpiQ9aY_Jl2AQ1F8j-40" value="" style="endArrow=none;dashed=1;html=1;strokeWidth=1;rounded=0;entryX=0.5;entryY=1;entryDx=0;entryDy=0;" edge="1" parent="1" target="e4ZrpiQ9aY_Jl2AQ1F8j-39">
          <mxGeometry width="50" height="50" relative="1" as="geometry">
            <mxPoint x="373" y="575" as="sourcePoint" />
            <mxPoint x="400" y="565" as="targetPoint" />
          </mxGeometry>
        </mxCell>
        <mxCell id="e4ZrpiQ9aY_Jl2AQ1F8j-41" value="&lt;p data-pm-slice=&quot;1 1 [&amp;quot;ordered_list&amp;quot;,{&amp;quot;order&amp;quot;:1,&amp;quot;fontColor&amp;quot;:null,&amp;quot;backgroundColor&amp;quot;:null},&amp;quot;list_item&amp;quot;,{&amp;quot;fontColor&amp;quot;:null,&amp;quot;backgroundColor&amp;quot;:null}]&quot; class=&quot;&quot;&gt;Завершение&lt;br&gt;процесса&lt;/p&gt;" style="text;html=1;align=center;verticalAlign=middle;resizable=0;points=[];autosize=1;strokeColor=none;fillColor=none;" vertex="1" parent="1">
          <mxGeometry x="327.5" y="565" width="90" height="70" as="geometry" />
        </mxCell>
        <mxCell id="e4ZrpiQ9aY_Jl2AQ1F8j-42" value="" style="group" vertex="1" connectable="0" parent="1">
          <mxGeometry x="361.25" y="565" width="22.5" height="20" as="geometry" />
        </mxCell>
        <mxCell id="e4ZrpiQ9aY_Jl2AQ1F8j-43" value="" style="endArrow=none;html=1;rounded=0;" edge="1" parent="e4ZrpiQ9aY_Jl2AQ1F8j-42">
          <mxGeometry width="50" height="50" relative="1" as="geometry">
            <mxPoint y="20" as="sourcePoint" />
            <mxPoint x="22.5" as="targetPoint" />
          </mxGeometry>
        </mxCell>
        <mxCell id="e4ZrpiQ9aY_Jl2AQ1F8j-44" value="" style="endArrow=none;html=1;rounded=0;" edge="1" parent="e4ZrpiQ9aY_Jl2AQ1F8j-42">
          <mxGeometry width="50" height="50" relative="1" as="geometry">
            <mxPoint x="1.8799999999999955" as="sourcePoint" />
            <mxPoint x="20.629999999999995" y="20" as="targetPoint" />
          </mxGeometry>
        </mxCell>
        <mxCell id="e4ZrpiQ9aY_Jl2AQ1F8j-46" value="" style="endArrow=classic;html=1;rounded=0;" edge="1" parent="1">
          <mxGeometry width="50" height="50" relative="1" as="geometry">
            <mxPoint x="460.0014285714287" y="584.29" as="sourcePoint" />
            <mxPoint x="640.4300000000004" y="584.29" as="targetPoint" />
          </mxGeometry>
        </mxCell>
        <mxCell id="e4ZrpiQ9aY_Jl2AQ1F8j-47" value="&lt;p data-pm-slice=&quot;1 1 [&amp;quot;ordered_list&amp;quot;,{&amp;quot;order&amp;quot;:1,&amp;quot;fontColor&amp;quot;:null,&amp;quot;backgroundColor&amp;quot;:null},&amp;quot;list_item&amp;quot;,{&amp;quot;fontColor&amp;quot;:null,&amp;quot;backgroundColor&amp;quot;:null}]&quot; class=&quot;&quot;&gt;База данных&amp;nbsp;возвращает&lt;br&gt;результат проверки &lt;br&gt;(например, номер найден &lt;br&gt;или не найден).&lt;/p&gt;" style="text;html=1;align=center;verticalAlign=middle;resizable=0;points=[];autosize=1;strokeColor=none;fillColor=none;" vertex="1" parent="1">
          <mxGeometry x="460" y="500" width="170" height="100" as="geometry" />
        </mxCell>
        <mxCell id="e4ZrpiQ9aY_Jl2AQ1F8j-48" value="" style="endArrow=classic;html=1;rounded=0;" edge="1" parent="1" target="JfvJ5AOV0zbwnn7TF4ZV-12">
          <mxGeometry width="50" height="50" relative="1" as="geometry">
            <mxPoint x="639.7814285714284" y="584.5799999999999" as="sourcePoint" />
            <mxPoint x="1000.2100000000004" y="584.5799999999999" as="targetPoint" />
          </mxGeometry>
        </mxCell>
        <mxCell id="e4ZrpiQ9aY_Jl2AQ1F8j-49" value="&lt;p data-pm-slice=&quot;1 1 [&amp;quot;ordered_list&amp;quot;,{&amp;quot;order&amp;quot;:1,&amp;quot;fontColor&amp;quot;:null,&amp;quot;backgroundColor&amp;quot;:null},&amp;quot;list_item&amp;quot;,{&amp;quot;fontColor&amp;quot;:null,&amp;quot;backgroundColor&amp;quot;:null}]&quot; class=&quot;&quot;&gt;Запись события &quot;Решение принято:&lt;br&gt;открыть/не открывать шлагбаум&quot;&lt;/p&gt;" style="text;html=1;align=center;verticalAlign=middle;resizable=0;points=[];autosize=1;strokeColor=none;fillColor=none;" vertex="1" parent="1">
          <mxGeometry x="680" y="530" width="220" height="70" as="geometry" />
        </mxCell>
        <mxCell id="e4ZrpiQ9aY_Jl2AQ1F8j-50" value="" style="endArrow=classic;html=1;rounded=0;" edge="1" parent="1">
          <mxGeometry width="50" height="50" relative="1" as="geometry">
            <mxPoint x="639.3235294117646" y="630" as="sourcePoint" />
            <mxPoint x="819.5" y="630" as="targetPoint" />
          </mxGeometry>
        </mxCell>
        <mxCell id="e4ZrpiQ9aY_Jl2AQ1F8j-51" value="&lt;p data-pm-slice=&quot;1 1 [&amp;quot;ordered_list&amp;quot;,{&amp;quot;order&amp;quot;:1,&amp;quot;fontColor&amp;quot;:null,&amp;quot;backgroundColor&amp;quot;:null},&amp;quot;list_item&amp;quot;,{&amp;quot;fontColor&amp;quot;:null,&amp;quot;backgroundColor&amp;quot;:null}]&quot; class=&quot;&quot;&gt;отправляет команду&lt;/p&gt;" style="text;html=1;align=center;verticalAlign=middle;resizable=0;points=[];autosize=1;strokeColor=none;fillColor=none;" vertex="1" parent="1">
          <mxGeometry x="660" y="590" width="140" height="50" as="geometry" />
        </mxCell>
        <mxCell id="e4ZrpiQ9aY_Jl2AQ1F8j-52" value="" style="endArrow=classic;html=1;rounded=0;" edge="1" parent="1" source="e4ZrpiQ9aY_Jl2AQ1F8j-53" target="JfvJ5AOV0zbwnn7TF4ZV-12">
          <mxGeometry width="50" height="50" relative="1" as="geometry">
            <mxPoint x="860" y="720" as="sourcePoint" />
            <mxPoint x="910" y="670" as="targetPoint" />
          </mxGeometry>
        </mxCell>
        <mxCell id="e4ZrpiQ9aY_Jl2AQ1F8j-54" value="&lt;p data-pm-slice=&quot;1 1 [&amp;quot;ordered_list&amp;quot;,{&amp;quot;order&amp;quot;:1,&amp;quot;fontColor&amp;quot;:null,&amp;quot;backgroundColor&amp;quot;:null},&amp;quot;list_item&amp;quot;,{&amp;quot;fontColor&amp;quot;:null,&amp;quot;backgroundColor&amp;quot;:null}]&quot; class=&quot;&quot;&gt;Запись ошибки &quot;Контроллер &lt;br&gt;шлагбаума не отвечает&quot;&lt;/p&gt;" style="text;html=1;align=center;verticalAlign=middle;resizable=0;points=[];autosize=1;strokeColor=none;fillColor=none;" vertex="1" parent="1">
          <mxGeometry x="820" y="610" width="180" height="70" as="geometry" />
        </mxCell>
        <mxCell id="e4ZrpiQ9aY_Jl2AQ1F8j-58" value="" style="group" vertex="1" connectable="0" parent="1">
          <mxGeometry x="670" y="650" width="105" height="120" as="geometry" />
        </mxCell>
        <mxCell id="e4ZrpiQ9aY_Jl2AQ1F8j-59" value="Сообщение" style="rounded=0;whiteSpace=wrap;html=1;" vertex="1" parent="e4ZrpiQ9aY_Jl2AQ1F8j-58">
          <mxGeometry width="105" height="30" as="geometry" />
        </mxCell>
        <mxCell id="e4ZrpiQ9aY_Jl2AQ1F8j-60" value="" style="endArrow=none;dashed=1;html=1;strokeWidth=1;rounded=0;entryX=0.5;entryY=1;entryDx=0;entryDy=0;" edge="1" parent="e4ZrpiQ9aY_Jl2AQ1F8j-58" target="e4ZrpiQ9aY_Jl2AQ1F8j-59">
          <mxGeometry width="50" height="50" relative="1" as="geometry">
            <mxPoint x="53" y="60" as="sourcePoint" />
            <mxPoint x="80" y="50" as="targetPoint" />
          </mxGeometry>
        </mxCell>
        <mxCell id="e4ZrpiQ9aY_Jl2AQ1F8j-61" value="" style="edgeStyle=orthogonalEdgeStyle;rounded=0;orthogonalLoop=1;jettySize=auto;html=1;" edge="1" parent="e4ZrpiQ9aY_Jl2AQ1F8j-58" source="e4ZrpiQ9aY_Jl2AQ1F8j-62" target="e4ZrpiQ9aY_Jl2AQ1F8j-59">
          <mxGeometry relative="1" as="geometry" />
        </mxCell>
        <mxCell id="e4ZrpiQ9aY_Jl2AQ1F8j-62" value="&lt;p data-pm-slice=&quot;1 1 [&amp;quot;ordered_list&amp;quot;,{&amp;quot;order&amp;quot;:1,&amp;quot;fontColor&amp;quot;:null,&amp;quot;backgroundColor&amp;quot;:null},&amp;quot;list_item&amp;quot;,{&amp;quot;fontColor&amp;quot;:null,&amp;quot;backgroundColor&amp;quot;:null}]&quot; class=&quot;&quot;&gt;Завершение&lt;br&gt;процесса&lt;/p&gt;" style="text;html=1;align=center;verticalAlign=middle;resizable=0;points=[];autosize=1;strokeColor=none;fillColor=none;" vertex="1" parent="e4ZrpiQ9aY_Jl2AQ1F8j-58">
          <mxGeometry x="7.5" y="50" width="90" height="70" as="geometry" />
        </mxCell>
        <mxCell id="e4ZrpiQ9aY_Jl2AQ1F8j-63" value="" style="group" vertex="1" connectable="0" parent="e4ZrpiQ9aY_Jl2AQ1F8j-58">
          <mxGeometry x="41.25" y="50" width="22.5" height="20" as="geometry" />
        </mxCell>
        <mxCell id="e4ZrpiQ9aY_Jl2AQ1F8j-64" value="" style="endArrow=none;html=1;rounded=0;" edge="1" parent="e4ZrpiQ9aY_Jl2AQ1F8j-63">
          <mxGeometry width="50" height="50" relative="1" as="geometry">
            <mxPoint y="20" as="sourcePoint" />
            <mxPoint x="22.5" as="targetPoint" />
          </mxGeometry>
        </mxCell>
        <mxCell id="e4ZrpiQ9aY_Jl2AQ1F8j-65" value="" style="endArrow=none;html=1;rounded=0;" edge="1" parent="e4ZrpiQ9aY_Jl2AQ1F8j-63">
          <mxGeometry width="50" height="50" relative="1" as="geometry">
            <mxPoint x="1.8799999999999955" as="sourcePoint" />
            <mxPoint x="20.629999999999995" y="20" as="targetPoint" />
          </mxGeometry>
        </mxCell>
        <mxCell id="e4ZrpiQ9aY_Jl2AQ1F8j-66" value="" style="endArrow=classic;html=1;rounded=0;dashed=1;entryX=1;entryY=0.75;entryDx=0;entryDy=0;" edge="1" parent="1" target="e4ZrpiQ9aY_Jl2AQ1F8j-59">
          <mxGeometry relative="1" as="geometry">
            <mxPoint x="820" y="672" as="sourcePoint" />
            <mxPoint x="785" y="670" as="targetPoint" />
          </mxGeometry>
        </mxCell>
        <mxCell id="e4ZrpiQ9aY_Jl2AQ1F8j-67" value="" style="endArrow=classic;html=1;rounded=0;" edge="1" parent="1">
          <mxGeometry width="50" height="50" relative="1" as="geometry">
            <mxPoint x="820.0033333333334" y="750" as="sourcePoint" />
            <mxPoint x="1000.6700000000004" y="750" as="targetPoint" />
          </mxGeometry>
        </mxCell>
        <mxCell id="e4ZrpiQ9aY_Jl2AQ1F8j-68" value="&lt;p data-pm-slice=&quot;1 1 [&amp;quot;ordered_list&amp;quot;,{&amp;quot;order&amp;quot;:1,&amp;quot;fontColor&amp;quot;:null,&amp;quot;backgroundColor&amp;quot;:null},&amp;quot;list_item&amp;quot;,{&amp;quot;fontColor&amp;quot;:null,&amp;quot;backgroundColor&amp;quot;:null}]&quot; class=&quot;&quot;&gt;Запись события &quot;Шлагбаум &lt;br&gt;открыт/закрыт&quot;.&lt;/p&gt;" style="text;html=1;align=center;verticalAlign=middle;resizable=0;points=[];autosize=1;strokeColor=none;fillColor=none;" vertex="1" parent="1">
          <mxGeometry x="820" y="698" width="180" height="70" as="geometry" />
        </mxCell>
        <mxCell id="e4ZrpiQ9aY_Jl2AQ1F8j-70" value="&lt;p data-pm-slice=&quot;1 1 [&amp;quot;ordered_list&amp;quot;,{&amp;quot;order&amp;quot;:1,&amp;quot;fontColor&amp;quot;:null,&amp;quot;backgroundColor&amp;quot;:null},&amp;quot;list_item&amp;quot;,{&amp;quot;fontColor&amp;quot;:null,&amp;quot;backgroundColor&amp;quot;:null}]&quot; class=&quot;&quot;&gt;Контроллер шлагбаума&amp;nbsp;открывает или оставляет закрытым шлагбаум&lt;/p&gt;" style="shape=note;whiteSpace=wrap;html=1;backgroundOutline=1;darkOpacity=0.05;fillColor=#dae8fc;strokeColor=#6c8ebf;" vertex="1" parent="1">
          <mxGeometry x="840" y="760" width="140" height="90" as="geometry" />
        </mxCell>
        <mxCell id="e4ZrpiQ9aY_Jl2AQ1F8j-71" value="&lt;p data-pm-slice=&quot;1 1 [&amp;quot;ordered_list&amp;quot;,{&amp;quot;order&amp;quot;:1,&amp;quot;fontColor&amp;quot;:null,&amp;quot;backgroundColor&amp;quot;:null},&amp;quot;list_item&amp;quot;,{&amp;quot;fontColor&amp;quot;:null,&amp;quot;backgroundColor&amp;quot;:null}]&quot; class=&quot;&quot;&gt;контроллер шлагбаума не отвечает&lt;/p&gt;" style="shape=note;whiteSpace=wrap;html=1;backgroundOutline=1;darkOpacity=0.05;fillColor=#dae8fc;strokeColor=#6c8ebf;" vertex="1" parent="1">
          <mxGeometry x="1020" y="650" width="70" height="100" as="geometry" />
        </mxCell>
        <mxCell id="e4ZrpiQ9aY_Jl2AQ1F8j-73" value="" style="html=1;shadow=0;dashed=0;align=center;verticalAlign=middle;shape=mxgraph.arrows2.stylisedArrow;dy=0.6;dx=40;notch=15;feather=0.4;direction=west;fillColor=#dae8fc;strokeColor=#6c8ebf;" vertex="1" parent="1">
          <mxGeometry x="820" y="768" width="30" height="20" as="geometry" />
        </mxCell>
        <mxCell id="e4ZrpiQ9aY_Jl2AQ1F8j-75" value="" style="html=1;shadow=0;dashed=0;align=center;verticalAlign=middle;shape=mxgraph.arrows2.stylisedArrow;dy=0.6;dx=40;notch=15;feather=0.4;direction=west;fillColor=#dae8fc;strokeColor=#6c8ebf;" vertex="1" parent="1">
          <mxGeometry x="830" y="668" width="200" height="12" as="geometry" />
        </mxCell>
        <mxCell id="e4ZrpiQ9aY_Jl2AQ1F8j-76" value="&lt;p data-pm-slice=&quot;1 1 [&amp;quot;ordered_list&amp;quot;,{&amp;quot;order&amp;quot;:1,&amp;quot;fontColor&amp;quot;:null,&amp;quot;backgroundColor&amp;quot;:null},&amp;quot;list_item&amp;quot;,{&amp;quot;fontColor&amp;quot;:null,&amp;quot;backgroundColor&amp;quot;:null}]&quot; class=&quot;&quot;&gt;принимает решение об открытии или закрытии шлагбаума&lt;/p&gt;" style="shape=note;whiteSpace=wrap;html=1;backgroundOutline=1;darkOpacity=0.05;fillColor=#dae8fc;strokeColor=#6c8ebf;" vertex="1" parent="1">
          <mxGeometry x="520" y="600" width="80" height="130" as="geometry" />
        </mxCell>
        <mxCell id="e4ZrpiQ9aY_Jl2AQ1F8j-77" value="" style="html=1;shadow=0;dashed=0;align=center;verticalAlign=middle;shape=mxgraph.arrows2.stylisedArrow;dy=0.6;dx=40;notch=15;feather=0.4;fillColor=#dae8fc;strokeColor=#6c8ebf;" vertex="1" parent="1">
          <mxGeometry x="570" y="605" width="70" height="15" as="geometry" />
        </mxCell>
        <mxCell id="e4ZrpiQ9aY_Jl2AQ1F8j-78" value="&lt;p data-pm-slice=&quot;1 1 [&amp;quot;ordered_list&amp;quot;,{&amp;quot;order&amp;quot;:1,&amp;quot;fontColor&amp;quot;:null,&amp;quot;backgroundColor&amp;quot;:null},&amp;quot;list_item&amp;quot;,{&amp;quot;fontColor&amp;quot;:null,&amp;quot;backgroundColor&amp;quot;:null}]&quot; class=&quot;&quot;&gt;база данных недоступна&lt;/p&gt;" style="shape=note;whiteSpace=wrap;html=1;backgroundOutline=1;darkOpacity=0.05;fillColor=#dae8fc;strokeColor=#6c8ebf;" vertex="1" parent="1">
          <mxGeometry x="140" y="470" width="130" height="60" as="geometry" />
        </mxCell>
        <mxCell id="e4ZrpiQ9aY_Jl2AQ1F8j-79" value="" style="html=1;shadow=0;dashed=0;align=center;verticalAlign=middle;shape=mxgraph.arrows2.stylisedArrow;dy=0.6;dx=40;notch=15;feather=0.4;fillColor=#dae8fc;strokeColor=#6c8ebf;" vertex="1" parent="1">
          <mxGeometry x="250" y="480" width="210" height="20" as="geometry" />
        </mxCell>
        <mxCell id="e4ZrpiQ9aY_Jl2AQ1F8j-82" value="&lt;p data-pm-slice=&quot;1 1 [&amp;quot;ordered_list&amp;quot;,{&amp;quot;order&amp;quot;:1,&amp;quot;fontColor&amp;quot;:null,&amp;quot;backgroundColor&amp;quot;:null},&amp;quot;list_item&amp;quot;,{&amp;quot;fontColor&amp;quot;:null,&amp;quot;backgroundColor&amp;quot;:null}]&quot; class=&quot;&quot;&gt;извлекает номерной знак с изображения&lt;/p&gt;" style="shape=note;whiteSpace=wrap;html=1;backgroundOutline=1;darkOpacity=0.05;fillColor=#dae8fc;strokeColor=#6c8ebf;" vertex="1" parent="1">
          <mxGeometry x="140" y="355" width="130" height="95" as="geometry" />
        </mxCell>
        <mxCell id="e4ZrpiQ9aY_Jl2AQ1F8j-83" value="" style="html=1;shadow=0;dashed=0;align=center;verticalAlign=middle;shape=mxgraph.arrows2.stylisedArrow;dy=0.6;dx=40;notch=15;feather=0.4;fillColor=#dae8fc;strokeColor=#6c8ebf;" vertex="1" parent="1">
          <mxGeometry x="220" y="350" width="60" height="20" as="geometry" />
        </mxCell>
        <mxCell id="e4ZrpiQ9aY_Jl2AQ1F8j-84" value="&lt;p data-pm-slice=&quot;1 1 [&amp;quot;ordered_list&amp;quot;,{&amp;quot;order&amp;quot;:1,&amp;quot;fontColor&amp;quot;:null,&amp;quot;backgroundColor&amp;quot;:null},&amp;quot;list_item&amp;quot;,{&amp;quot;fontColor&amp;quot;:null,&amp;quot;backgroundColor&amp;quot;:null}]&quot; class=&quot;&quot;&gt;обработка изображения завершилась ошибкой&lt;/p&gt;" style="shape=note;whiteSpace=wrap;html=1;backgroundOutline=1;darkOpacity=0.05;fillColor=#dae8fc;strokeColor=#6c8ebf;" vertex="1" parent="1">
          <mxGeometry x="140" y="270" width="130" height="70" as="geometry" />
        </mxCell>
        <mxCell id="e4ZrpiQ9aY_Jl2AQ1F8j-85" value="" style="edgeStyle=elbowEdgeStyle;rounded=0;orthogonalLoop=1;jettySize=auto;html=1;elbow=vertical;curved=0;" edge="1" parent="1" source="aM9ryv3xv72pqoxQDRHE-6" target="e4ZrpiQ9aY_Jl2AQ1F8j-84">
          <mxGeometry relative="1" as="geometry" />
        </mxCell>
        <mxCell id="e4ZrpiQ9aY_Jl2AQ1F8j-86" value="" style="html=1;shadow=0;dashed=0;align=center;verticalAlign=middle;shape=mxgraph.arrows2.stylisedArrow;dy=0.6;dx=40;notch=15;feather=0.4;fillColor=#dae8fc;strokeColor=#6c8ebf;" vertex="1" parent="1">
          <mxGeometry x="240" y="280" width="40" height="20" as="geometry" />
        </mxCell>
      </root>
    </mxGraphModel>
  </diagram>
</mxfile>
